<?xml version="1.0" encoding="utf-8"?>
<!-- Generator: Adobe Illustrator 27.0.1, SVG Export Plug-In . SVG Version: 6.00 Build 0)  -->
<svg version="1.1" id="Calque_1" xmlns="http://www.w3.org/2000/svg" xmlns:xlink="http://www.w3.org/1999/xlink" x="0px" y="0px"
	 viewBox="0 0 235 57" style="enable-background:new 0 0 235 57;" xml:space="preserve">
<style type="text/css">
	.st0{fill:#575756;}
</style>
<rect x="31.26" y="5.14" class="st0" width="9.06" height="9.06"/>
<path class="st0" d="M40.09,52.32V19.68h-8.6v32.61h8.6V52.32z M97.07,52.65v-7.99c-1.26,0-2.32-0.06-3.09-0.19
	c-0.9-0.13-1.58-0.45-2.03-0.9s-0.74-1.1-0.9-1.97c-0.13-0.81-0.19-1.87-0.19-3.16V27.06h6.22v-7.38h-6.22V6.98h-8.6v31.55
	c0,2.67,0.23,4.93,0.68,6.74c0.45,1.77,1.22,3.22,2.29,4.32c1.06,1.1,2.48,1.87,4.19,2.35c1.74,0.48,3.93,0.71,6.54,0.71
	L97.07,52.65L97.07,52.65z M146.31,52.32V4.47h-8.6v47.86H146.31z M73.96,22.9c-2.38-2.58-5.74-3.87-9.99-3.87
	c-2.06,0-3.96,0.42-5.64,1.26c-1.71,0.84-3.13,2-4.29,3.48l-0.45,0.61v-0.55v-4.16h-8.48v32.61h8.54V34.92v1.19
	c0-0.19,0-0.39,0-0.58c0.1-3.06,0.84-5.32,2.26-6.77c1.51-1.55,3.35-2.32,5.45-2.32c2.48,0,4.38,0.77,5.64,2.26
	c1.22,1.48,1.87,3.58,1.87,6.25l0,0v0.1l0,0l0,0v17.24h8.67v-18.5C77.57,29.15,76.35,25.48,73.96,22.9z M133.26,35.95
	c0-2.35-0.42-4.54-1.22-6.61c-0.84-2.03-2-3.83-3.45-5.38c-1.48-1.55-3.25-2.74-5.32-3.61c-2.06-0.87-4.35-1.29-6.83-1.29
	c-2.35,0-4.58,0.45-6.64,1.32c-2.06,0.9-3.87,2.09-5.38,3.61c-1.51,1.51-2.74,3.32-3.61,5.38c-0.9,2.06-1.32,4.29-1.32,6.64
	s0.42,4.58,1.26,6.64c0.84,2.06,2.03,3.87,3.51,5.38c1.48,1.51,3.32,2.74,5.45,3.61c2.13,0.9,4.48,1.35,6.99,1.35
	c7.28,0,11.79-3.32,14.5-6.41l-6.19-4.71c-1.29,1.55-4.38,3.64-8.25,3.64c-2.42,0-4.42-0.55-5.93-1.68
	c-1.51-1.1-2.55-2.64-3.09-4.54l-0.1-0.29h25.62L133.26,35.95L133.26,35.95z M107.7,32.96c0-2.38,2.74-6.54,8.64-6.57
	c5.9,0,8.67,4.16,8.67,6.54L107.7,32.96z M156.11,48.2c-0.16-0.39-0.39-0.71-0.68-1s-0.61-0.52-1-0.68s-0.81-0.26-1.22-0.26
	c-0.45,0-0.84,0.1-1.22,0.26s-0.71,0.39-1,0.68c-0.29,0.29-0.52,0.61-0.68,1s-0.26,0.81-0.26,1.22c0,0.45,0.1,0.84,0.26,1.22
	c0.16,0.39,0.39,0.71,0.68,1c0.29,0.29,0.61,0.52,1,0.68c0.39,0.16,0.81,0.26,1.22,0.26c0.45,0,0.84-0.1,1.22-0.26
	c0.39-0.16,0.71-0.39,1-0.68s0.52-0.61,0.68-1c0.16-0.39,0.26-0.81,0.26-1.22S156.27,48.58,156.11,48.2z M155.59,50.45
	c-0.13,0.32-0.32,0.61-0.55,0.84s-0.52,0.42-0.84,0.55c-0.32,0.13-0.64,0.19-1.03,0.19c-0.35,0-0.71-0.06-1.03-0.19
	s-0.61-0.32-0.84-0.55c-0.23-0.23-0.42-0.52-0.55-0.84c-0.13-0.32-0.19-0.64-0.19-1.03c0-0.35,0.06-0.71,0.19-1.03
	c0.13-0.32,0.32-0.61,0.55-0.84c0.23-0.23,0.52-0.42,0.84-0.55c0.32-0.13,0.64-0.19,1.03-0.19c0.35,0,0.71,0.06,1.03,0.19
	c0.32,0.13,0.61,0.32,0.84,0.55c0.23,0.23,0.42,0.52,0.55,0.84c0.13,0.32,0.19,0.64,0.19,1.03
	C155.79,49.81,155.72,50.13,155.59,50.45z M153.79,49.71c0.26-0.03,0.45-0.13,0.61-0.29s0.26-0.39,0.26-0.71
	c0-0.35-0.1-0.61-0.32-0.81c-0.19-0.19-0.55-0.29-0.97-0.29h-1.42v3.64h0.68v-1.48h0.48l0.9,1.48h0.71L153.79,49.71z M153.43,49.17
	c-0.1,0-0.19,0-0.32,0h-0.48v-1.03h0.48c0.1,0,0.19,0,0.32,0c0.1,0,0.19,0.03,0.29,0.06c0.1,0.03,0.16,0.1,0.19,0.16
	c0.06,0.06,0.06,0.16,0.06,0.29c0,0.13-0.03,0.23-0.06,0.29c-0.06,0.06-0.13,0.13-0.19,0.16C153.63,49.13,153.53,49.17,153.43,49.17
	z"/>
</svg>
